<?xml version="1.0" encoding="utf-8"?>
<!-- Generator: Adobe Illustrator 23.1.0, SVG Export Plug-In . SVG Version: 6.00 Build 0)  -->
<svg version="1.1" id="Layer_1" xmlns="http://www.w3.org/2000/svg" xmlns:xlink="http://www.w3.org/1999/xlink" x="0px" y="0px"
	 viewBox="0 0 1189.6 657.4" style="enable-background:new 0 0 1189.6 657.4;" xml:space="preserve">
<style type="text/css">
	.st0{fill:#fff;}
</style>
<g>
	<g id="Layer_5">
	</g>
	<g id="Layer_4">
	</g>
	<g id="Layer_3">
	</g>
</g>
<g id="Layer_6">
	<g id="Layer_14">
	</g>
	<g id="Layer_12">
	</g>
	<g id="Layer_11">
	</g>
	<g id="Layer_10">
	</g>
	<g id="Layer_9">
	</g>
	<g id="Layer_8">
	</g>
	<g id="Layer_7">
	</g>
</g>
<g>
	<path class="st0" d="M583.9,197.8c3.1-1.1,6.3-1.9,8.7-4.5c4.6-5.2,10.4-9.1,16.1-13.9l0.5-0.3c-0.1,0.3-0.2,0.5-0.3,0.8
		c-0.3,1.4-0.6,1.9-1,2.8c-8.8,20.6-13,42.1-13.1,64.5c-0.1,10,1.6,19.3,6.3,28.1c3.3,6.1,8.5,9.2,15.1,9.9
		c4.5,0.5,8.8-0.4,13.2-1.4c6-1.4,11.1-3.9,16.9-6.3l4-1.9c1.9-1,2.4-1.4,3.8-2.2c13.7-8.7,27.5-17.2,37-31c4.2-6,3.3-12.1,1.7-18.5
		c-0.3-1.3-1.1-2.9-2.7-2.3c-4.6,1.8-9.8,1.8-13.6,5.6c-4.4,4.3-8.7,8.8-13.4,12.7c-12.2,10.1-25,19.2-40,24.7
		c-2.1,0.8-4.2,1.1-6.3,0.9c-4-0.3-4.3-3.9-4.7-6.6c-0.1-0.6-0.1-1.3-0.2-1.9c0.2,0,0.5,0.1,0.7,0.1c1,0.1,2.6,0.2,3.6,0
		c3.9-0.5,6.4-2.4,7.7-6.1c1.7-4.7,4.4-8.8,7.4-12.8c8.5-11.4,19.8-20.2,29-30.9c1.4-1.6,3-3,3.4-5.3c0.8-4.7-0.8-8.7-4.9-10.3
		c-3.7-1.5-8.2-1.4-11.7,1.4c-11.9,9.3-24,18.3-34.2,31.1c1.4-12.2,3.9-23,7.6-33.5c1.7-4.9,3.9-9.3,8.7-12.2c3.4-2,4-6.7,1.3-9.4
		c-0.9-1.1-0.6-0.6-2.1-2.1c-0.1-0.1-0.3-0.1-0.5-0.2l1.5-1c0.6-0.4,1.3-1,2.2-1.6c7.8-5.5,15.8-10.6,23.9-15.6
		c6.1-3.9,8.8-10,11.7-16.1c1.4-2.9-0.4-3.4-2.2-3.3c-7,0.4-14.4,0.6-20.3,4c-22,12.7-44.1,25.4-63.3,42.2c-7.6,6.6-8,14-1.4,21.4
		C580.9,197.6,582.2,198.4,583.9,197.8z"/>
	<path class="st0" d="M1129,71.3c-15.1,3-30.5,5.3-45,10.2c-76.2,26.1-150.5,57.1-223.5,91.2c-13.9,6.5-27.7,12.9-42,19.5
		c-0.2-2.8-0.5-5.1-0.5-7.4c-0.4-19.8-0.7-39.6-1.1-59.4c-0.2-9.3-0.5-18.6-1.2-27.9c-1.1-16.1-2.2-32.1-3.9-48.1
		c-0.8-7.5,0-15.7-5.8-22c-1.6-1.7-11.4-5.3-13-4c-3.4,2.6-2.4,6.5-2.1,10.1c0,0.2,0,0.3,0.1,0.5c1.9,7.1,2.2,14.4,2.8,21.6
		c1.4,17,2.5,34.1,3,51.2c1,30.5,1.4,61,2.2,91.4c0.1,2.7,0.1,1.7,0,3.6l-3.2,1.6c-20.6,10-41.2,20.2-61.7,30.5
		c-28.2,14.2-55.6,28.3-83.7,42.7c-0.3,0.2-1,0.5-1.4,0.8s-0.9,0.6-1.3,0.8c-19.4,10.3-38.8,20.6-58.2,30.9
		c-0.2,0.1-0.5,0.3-0.8,0.4l-0.9,0.5c-3.7-0.1-7.4,0-11.1,0.8c-4.6,0.9-8.9,2.7-13.1,4.7c-2.1,1-4.2,2.2-6.2,3.4
		c-4,2.3-8,4.6-12.5,5.9c-4.6,1.3-6.9,0-8.1-4.6c-2.4-9.1-0.5-18.1,1.1-27.1c3.1-17.6,8.1-34.7,16.1-50.8c0.9-1.8,1.5-3.1,4.3-2.1
		c2.7,1,5.7-0.7,7.2-3.2c2.2-3.6-0.8-14.2-4.3-17c-6.4-5-16.2-3.1-20.4,4.1c-13.7,23.6-19.7,49.5-22.9,76.3c-0.9,7.6-1,15.5,1,23
		c1,3.7,2.6,7.3,4.6,10.5c1.8,2.8,3.8,6.3,7.1,7.1l0,0c-0.7,0.4-2.4,1.2-3.1,1.5c-8.1,4.5-16.1,9-24.6,13.7c0-1.4,0-2.3,0-3.2
		c0-13.1,2.2-26.1,3-39.1c0.7-11.1,1.4-22.2,2.3-33.2c1-11.7,0.6-23.3-1.5-34.8c-1.9-10.9-11.5-16.6-17.2-16.5
		c-9.2,0.2-17.1,3.3-22.7,11.1c-3.9,5.4-8.1,10.5-11.9,16c-6.3,9-11.5,18.7-16.6,28.3l-1.2,2.7l-0.1-0.1c-8.8-5.3-17.5-3.1-22.1,4.7
		c-2.4,4-4.8,8.1-8.3,11.1c-4.1,3.6-4.6,5.9-1.3,10.5c0.7,0.9,1.4,1.7,1.8,2.9c1,3,3.2,3.8,6.3,3.1c3.5-0.8,8.5-1.5,10.6-3l0,0
		c-0.4,2.1-0.6,2.5-1.2,4.2c-2.9,8.1-5,16.4-7.3,24.7c-2.8,10.2,1.4,17.8,7.3,25.2c0.6,0.8,2,1.2,3.1,1.4c4.7,0.9,11.4-3.7,13.3-8.2
		c3.4-8.4,2.9-17.6,5.6-26.1c8-24.7,19.3-47.8,33.8-69.3c2.2-3.3,4.2-6.8,8.1-9.7c0,2.1,0.1,3.4,0,4.7c-0.9,14.8-1.6,29.5-2.7,44.2
		c-0.7,8.9-2.3,17.8-2.7,26.7c-0.4,9.7-1.7,19.7,2.4,29c1.2,2.7,0.6,1.5,1.4,3.3c0,0,0,0,0,0.1c-18.5,10.8-49.4,29-84,49.3
		c0-1.3,0-2.1,0-2.1c-0.7-25.6-0.4-51.2-4.1-76.6c-2.2-15-5-30-12.1-43.4c-9.8-18.6-24.8-24-44-15.6c-7.6,3.3-12.9,9.3-18.1,15.3
		c-11.1,12.7-19.8,27-28,41.8c-8.1-7.3-11.6-6.5-19.5,1.4c-5.2,5.2-7.8,12.3-9.2,19.5c-2.2,11.5-3.9,23.1-4,34.9l-0.1,2.1
		c-0.5,0.4-1,0.7-1.8,1.3c-4.4,3.5-4.6,6-1.6,11.2c0.7,1.2,0.7,1.1,2.1,2.6l0.2-0.1l-0.1,1.2c-1.5,15.2-2.2,30.4-5.2,45.4
		c-0.6,3.1-0.8,6.2-1.5,9.3c-1.5,6.4,3.2,10.1,5.9,14.9c1.9,3,4.1,4,7.4,2.9c6.5-2.1,9.6-6.7,10.9-13.4c4.2-22.9,9.9-45.5,16.9-67.8
		c0.6-1.9,0.9-3.7,1.7-5.3l0.4-1.1c2.2-1.2,2.7-1.5,4.5-2.7c12.6-7.8,24.9-16.2,37.5-24c5.6-3.5,7.6-9,9.6-14.5
		c1.1-3-0.2-5.1-3.9-5.1c-4.8,0-9.5,0.5-14.2,2c-7,2.2-12.7,6.8-19.9,10c7.8-17.1,17-32.5,27.8-46.8c4.5-5.9,8.8-12.1,15.1-16.4
		c3.8-2.6,7.1-2,10.4,0.6c2.5,2,4,4.8,4.9,7.8c5.8,18.7,8.4,37.9,9,57.4c0.7,21.1,0.2,42.3-0.9,63.4c0,0-0.2,1.7-0.2,4.1
		c-63.6,37.4-132.5,78-157.7,93.1c-41.6,25-82.9,50.5-127.5,70.1c-12.9,5.7-25.9,10.5-39.9,12.4c-8.1,1.1-9.1-1.6-8.9-7.3
		c0.4-13.4,3.6-26.2,6.7-39.1c12.9-52.8,29.1-104.8,42.9-157.3c10.9-41.4,20.5-83,29.4-124.8c4.6-21.6,8.8-43.2,12.7-64.9
		c2.5-14,5-27.9,6.4-42.1c1-10,2.9-20,3.7-30c0.7-9.6,2.5-19.1,1.3-28.8c-0.9-7.7-8.9-15.2-16.5-14.8c-1.2,0.1-2,0.9-2.6,2
		c-3.7,6.6-3.4,13.7-1.3,20.4c0.9,3,1.6,5.7,1.3,8.6c-2.2,15.8-3.9,31.7-6.8,47.5c-4.1,22.7-7.7,45.6-12.3,68.3
		c-5,25-10.9,49.7-16.7,74.5c-9.4,40.5-20.1,80.7-31.7,120.6c-12.1,41.7-26.5,82.8-36.9,125c-3.2,13.1-6.1,26.4-2.4,39.6
		c3.6,13,10.2,23.8,25.5,25.6c6.9,0.8,13.5-0.7,20.1-2.2c20.8-4.8,40.2-13.7,59.3-23c44.7-21.8,86.8-48.2,129.3-73.8
		c62.1-37.4,124-75,186.9-110.9c43.1-24.6,86.1-49.5,129.7-73.2c64.5-35,129.8-68.5,195.4-101.4c10.6-5.3,21.4-10.3,32.5-15.6
		c0.1,1.6,0.2,2.6,0.2,3.6c-0.1,39.6,0.2,79.3-1.8,118.9c-1,19.3-1.7,38.6,0,57.9c1,11.2,1.4,22.9,10.3,32c2.4,2.4,3.9,5.4,7.4,3.7
		c3.9-1.8,8.5-3.8,8-9.6c-0.2-3-0.2-6-0.6-9c-2-15.8-3.1-31.8-3.2-47.7c-0.4-51.8-0.1-103.6-0.2-155.5l-0.1-4.2l3.7-1.8
		c56.5-26.9,113.7-51.8,171.6-75.4c34.1-13.9,68.9-26.2,103.5-38.9c21.9-8.1,42.6-19.5,63.4-30.2c4.1-2.1,8.5-3.9,12.4-7.4
		C1158,65,1143.5,68.4,1129,71.3z"/>
	<path class="st0" d="M730,410c-1.3-8.8-2.6-17.6-5.9-25.9c-2.4-5.9-9.1-10.3-14-10c-9,0.5-14.8,5.1-18.8,13
		c-4.8,9.6-9.3,19.4-15,28.6c-6.5,10.3-12.7,20.8-21.1,31.1c0-2.8-0.1-4.4,0-6c0.3-5.5,0.9-10.9,0.9-16.4c0-5.9-7.2-12.9-12.1-12
		c-6.3,1.2-12.5,2.7-13.9,10.6c-0.4,2.1-1.9,3.9-2.3,6c-0.4,1-1,2.6-1.6,4.6c-1.4-0.1-4,0.3-4.1,0.3c-4.7,0.1-7,2.8-7.8,6.9
		c-1.1,5.5-2.3,11-2.9,16.6c-1,9.3-1.6,18.6-2.5,28.8c-6.2-5.8-13.2-6.2-20.4-4.9c-5.7,1-11.3,2.2-16.8,3.8
		c-33.6,9.3-65.7,22.6-97.9,35.5c-8.7,3.5-17.4,7.1-26,10.6c12.2-15.3,25-29.8,37.7-44.4c24.4-28.1,50.5-54.5,77.6-79.8
		c4.3-4,5.5-9.7,2.7-13.2c-3.5-4.4-11.3-5-16-1.4c-9.2,7.2-17.7,15.2-26.1,23.3c-32.4,31.3-62.2,64.9-92.6,98
		c-9.5,10.3-19.3,20.2-29.1,30.2c-3.5,3.6-5.5,7.8-3.6,12.6c1.5,3.7,3.7,7.2,5.9,10.6c1,1.5,2.9,2,4.9,2.1c0.1,0,0.1,0,0.2,0
		c3.8,0,7.3-1.3,10.7-2.7c34.7-14.2,69.4-28.7,104.1-42.8c19.1-7.8,38.4-14.9,59.3-20.8c-2.1,2.7-3.4,4.7-5,6.6
		c-23.3,28.1-48.4,54.4-77.1,77.3C482.3,601.9,463,616.5,441,627c-2.3,1.1-2.1,2.4-2,4.3c0.3,4.4,4,6.6,5.9,10
		c1.6,2.8,3.7,3.7,6.9,3.1c8.8-1.7,16.9-5.2,24.7-9.4c27.5-14.8,50.8-35.4,73.7-56.1c20.2-18.2,38.5-38.3,54.6-60.7
		c-0.5,6.1,3.8,10.1,6.2,14.8c0,0.1,0.1,0.1,0.1,0.2c0.3,0.4,1,1.4,1.7,2.1c0.3,0.3,0.7,0.5,1,0.6c0.2,0.1,0.3,0.1,0.5,0.1
		c0.3,0.1,0.7,0.1,1.1,0l0,0c0.6-0.1,1.2-0.3,1.9-0.5c0.1,0,0.2-0.1,0.2-0.1c5.2-1.8,9.4-4.2,10.4-10.4c0.5-3.6,2-7,2.8-10.5
		c3-14.1,6.5-28.1,10.3-42.1c6.8,5.6,8.3,5.7,16.6,3.2c10.1-3,16.9-10.1,22.9-18.2c9.9-13.2,18.5-27.3,27.1-42.7
		c1.4,13.2,2.3,25.4,4.1,37.4c1.7,11.6,1.1,23.7,8.5,34.1c2,2.8,3.3,5.4,7,4.9c5.3-0.7,10.1-4.3,10.3-7.9c0.2-3.8,0.5-7.7-0.1-11.5
		C734.4,451.1,733.1,430.5,730,410z M610.7,506c0.4-3,0.8-6.1,1.3-9.4C612.1,499.3,611.8,502.4,610.7,506z"/>
	<path class="st0" d="M1012.5,323.8c-22.1,4.8-44.2,10.7-67.1,9.3c-9.7-0.6-18.7-2.8-24.5-11.7c-2.7-4.1-5.3-8.3-6.9-13
		c-2.5-7.1-4.9-14.2-7.8-21.1c-3.1-7.4-7.8-9.7-15.6-8.3c-0.8,0-1.5,0.2-2.3,0.6c0-0.7,0.1-1.3,0.1-2c1.4-11.4-0.3-22.9,2.4-34.2
		c1.1-4.5,1.7-9.1,2-13.7c0.4-4.6-2.6-7.7-6.5-8.9c-5.1-1.5-9,1-10.6,6.2c-0.8,2.7-1.7,5.5-1.7,8.2c0.2,16.1-0.4,32.2-2.1,48.3
		c-1.1,9.9-2.2,19.7-3.6,29.5c-2,14.8-6.7,29-9.2,43.7c-0.8,4.8,3.3,12.8,8.3,15.8c1.5,0.9,2.8,1,4,0.7c0.1,0,0.1,0,0.2,0
		c0.2-0.1,0.5-0.2,0.8-0.3c0.1,0,0.2-0.1,0.2-0.1c1.4-0.7,2.6-1.7,3.9-2.4c2.7-1.6,3.8-4.4,4.5-7.4c2-8.5,3.8-17.1,6-25.6
		c2.5-9.9,5.3-19.7,8.2-30.6c2.4,7.9,5.5,14.2,8.6,20.4c9,17.8,23.3,26.8,43.3,27.2c10.8,0.2,21.5-0.1,32.1-2.1
		c14.1-2.6,27.6-6.8,40.5-13.1c2.2-1.1,4.6-2.3,4.9-5.1C1025.3,327,1019.4,322.3,1012.5,323.8z"/>
	<path class="st0" d="M760.1,358.6c-4.1-11.3-7.9-13.3-19.2-10.1c-2.5,0.7-3.4,1.9-2.8,4.3c0.5,1.9,1,3.8,1.8,5.6
		c4,9.8,5.7,20.1,7,30.4c1.7,13.9,2.4,28,4.2,41.9c1,7.4,1.8,15,4.9,22c1.2,2.8,2.3,6.9,5.6,6.8c4.2-0.1,6-4.2,7.1-8
		c0.1-0.5,0.1-1,0.2-1.5c1.6-6,0.6-12.3,1.6-17.7c-1-12-0.9-23.5-2.5-34.9C766.2,384.4,764.7,371.3,760.1,358.6z"/>
	<path class="st0" d="M732.7,336.8c5.7,0.2,11.2-4,12.2-9.7c0.3-1.5,0.8-2.7,1.4-4.1c1.7-4,2.9-8.7,0-12.2s-6.4-7.5-12.2-5.1
		c-0.9,0.4-2,0.2-1.8,0.2c-6.4-0.2-8.8,2.2-9.3,7.5c-0.8,7.7,2.9,14.1,5.7,20.8C729.2,335.6,730.7,336.7,732.7,336.8z"/>
</g>
</svg>
