<?xml version="1.0" encoding="UTF-8" standalone="no"?>
<!DOCTYPE svg PUBLIC "-//W3C//DTD SVG 1.1//EN" "http://www.w3.org/Graphics/SVG/1.1/DTD/svg11.dtd">
<svg version="1.1" xmlns="http://www.w3.org/2000/svg" xmlns:xlink="http://www.w3.org/1999/xlink" preserveAspectRatio="xMidYMid meet" viewBox="0 0 150 600" width="150" height="600"><defs><path d="M75 98.66L0 131.54L0.01 65.77L0.01 0L75.01 32.89L150.01 65.78L75 98.66Z" id="i6YXXFLSR"></path><path d="M75 164.43L0 197.31L0.01 131.54L0.01 65.77L75.01 98.66L150.01 131.55L75 164.43Z" id="a1D9GZYDtJ"></path><path d="M75 230.2L0 263.08L0.01 197.31L0.01 131.54L75.01 164.43L150.01 197.32L75 230.2Z" id="a2DEoOtL3M"></path><path d="M75 295.97L0 328.85L0.01 263.08L0.01 197.31L75.01 230.2L150.01 263.09L75 295.97Z" id="b2aM2nPqpJ"></path><path d="M75 361.74L0 394.62L0.01 328.85L0.01 263.08L75.01 295.97L150.01 328.86L75 361.74Z" id="c15YzfeRz"></path><path d="M75 427.51L0 460.39L0.01 394.62L0.01 328.85L75.01 361.74L150.01 394.63L75 427.51Z" id="a26sqbZHz9"></path><path d="M75 493.28L0 526.16L0.01 460.39L0.01 394.62L75.01 427.51L150.01 460.4L75 493.28Z" id="b1aNlIyVoR"></path><path d="M75 559.05L0 591.93L0.01 526.16L0.01 460.39L75.01 493.27L150.01 526.17L75 559.05Z" id="bbjtcyh8R"></path></defs><g><g><g><use xlink:href="#i6YXXFLSR" opacity="1" fill="#ffffff" fill-opacity="1"></use></g><g><use xlink:href="#a1D9GZYDtJ" opacity="1" fill="#ffffff" fill-opacity="1"></use></g><g><use xlink:href="#a2DEoOtL3M" opacity="1" fill="#ffffff" fill-opacity="1"></use></g><g><use xlink:href="#b2aM2nPqpJ" opacity="1" fill="#ffffff" fill-opacity="1"></use></g><g><use xlink:href="#c15YzfeRz" opacity="1" fill="#ffffff" fill-opacity="1"></use></g><g><use xlink:href="#a26sqbZHz9" opacity="1" fill="#ffffff" fill-opacity="1"></use></g><g><use xlink:href="#b1aNlIyVoR" opacity="1" fill="#ffffff" fill-opacity="1"></use></g><g><use xlink:href="#bbjtcyh8R" opacity="1" fill="#ffffff" fill-opacity="1"></use></g></g></g></svg>