<?xml version="1.0" encoding="utf-8"?>
<!-- Generator: Adobe Illustrator 23.1.0, SVG Export Plug-In . SVG Version: 6.00 Build 0)  -->
<svg version="1.1" xmlns="http://www.w3.org/2000/svg" xmlns:xlink="http://www.w3.org/1999/xlink" x="0px" y="0px"
	 viewBox="0 0 1057 117" style="enable-background:new 0 0 1057 117;" xml:space="preserve">
<style type="text/css">
	.st0{fill:#FFFFFF;}
</style>
<g id="Guide">
	<g>
		<g id="Layer_5">
		</g>
		<g id="Layer_4">
		</g>
		<g id="Layer_3">
		</g>
	</g>
	<g id="Layer_6">
		<g id="Layer_14">
		</g>
		<g id="Layer_12">
		</g>
		<g id="Layer_11">
		</g>
		<g id="Layer_10">
		</g>
		<g id="Layer_9">
		</g>
		<g id="Layer_8">
		</g>
		<g id="Layer_7">
		</g>
	</g>
</g>
<g id="Layer_2">
	<g>
		<path class="st0" d="M38.1,93.3L9.4,29h13.8l17.4,38.9c2.9-6.5,5.7-13,8.6-19.5c2.9-6.5,5.8-13,8.7-19.4h13.8L43.3,93.3H38.1z"/>
		<path class="st0" d="M108,92.7V29h12.6v63.7H108z"/>
		<path class="st0" d="M181.5,93.3c-2.8,0-5.5-0.4-8.1-1.2c-2.6-0.8-5.1-1.9-7.4-3.4h0.1c-1.6-1-3.1-2.2-4.4-3.4
			c-1.3-1.2-2.2-2.1-2.6-2.6l9.5-8.7c0.4,0.5,1.1,1.2,2,2c0.9,0.8,2,1.5,3.2,2.2c1.2,0.7,2.5,1.3,3.8,1.8c1.3,0.5,2.6,0.7,3.8,0.7
			c1,0,2.1-0.1,3.1-0.4c1-0.2,2-0.6,2.8-1.1c0.8-0.5,1.5-1.2,2.1-2c0.5-0.8,0.8-1.9,0.8-3.2c0-0.5-0.2-1-0.5-1.6
			c-0.3-0.6-0.9-1.2-1.7-1.9s-2-1.4-3.4-2.1c-1.5-0.8-3.3-1.6-5.5-2.4c-2.5-1-4.9-2-7.1-3.1c-2.2-1.1-4.1-2.4-5.7-4
			c-1.6-1.5-2.9-3.2-3.7-5.2c-0.9-1.9-1.3-4.2-1.3-6.7c0-2.6,0.5-5.1,1.5-7.3c1-2.3,2.4-4.2,4.1-5.9c1.8-1.7,3.9-3,6.5-3.9
			c2.5-0.9,5.3-1.4,8.3-1.4c1.6,0,3.4,0.2,5.2,0.6c1.8,0.4,3.7,1,5.4,1.6c1.8,0.7,3.4,1.4,5,2.3c1.5,0.9,2.8,1.8,3.9,2.7l-7.8,9.8
			c-1.2-0.8-2.3-1.5-3.5-2.2c-1-0.5-2.2-1.1-3.5-1.5c-1.3-0.5-2.7-0.7-4.1-0.7c-2.5,0-4.5,0.5-6,1.5c-1.4,1-2.1,2.4-2.1,4.3
			c0,0.9,0.3,1.6,0.8,2.3c0.5,0.7,1.2,1.3,2.1,1.9c0.9,0.6,1.9,1.1,3,1.6c1.2,0.5,2.4,0.9,3.6,1.4c3.6,1.4,6.7,2.8,9.2,4.2
			c2.5,1.4,4.5,2.9,6,4.5c1.5,1.6,2.6,3.3,3.2,5.2c0.6,1.9,1,3.9,1,6.1c0,2.7-0.5,5.2-1.6,7.6c-1.1,2.4-2.6,4.4-4.5,6.1
			c-1.9,1.7-4.2,3.1-6.8,4.1C187.5,92.8,184.6,93.3,181.5,93.3z"/>
		<path class="st0" d="M243.2,92.7V29h12.6v63.7H243.2z"/>
		<path class="st0" d="M328.2,93.3c-4.1,0-8-0.8-11.9-2.3c-3.9-1.5-7.4-3.7-10.4-6.5c-3.1-2.8-5.5-6.2-7.4-10.2
			c-1.9-4-2.8-8.5-2.8-13.4c0-4.2,0.8-8.3,2.5-12.3c1.6-3.9,3.9-7.4,6.8-10.4c2.9-3,6.3-5.4,10.3-7.2c4-1.8,8.3-2.7,13-2.7
			c4.2,0,8.2,0.8,12.1,2.4c3.9,1.6,7.4,3.9,10.4,6.7c3,2.9,5.4,6.3,7.2,10.3c1.8,4,2.7,8.4,2.7,13.1c0,4.2-0.8,8.2-2.4,12.1
			c-1.6,3.9-3.9,7.4-6.7,10.4c-2.9,3-6.3,5.4-10.3,7.2C337.3,92.4,333,93.3,328.2,93.3z M328.2,41c-2.7,0-5.3,0.5-7.7,1.5
			c-2.4,1-4.5,2.5-6.3,4.3c-1.8,1.8-3.2,3.9-4.3,6.4c-1,2.4-1.5,5-1.5,7.7s0.5,5.3,1.6,7.7c1.1,2.4,2.5,4.5,4.3,6.3
			c1.8,1.8,3.9,3.2,6.3,4.2c2.4,1,5,1.5,7.7,1.5s5.3-0.5,7.7-1.5c2.4-1,4.5-2.4,6.3-4.2c1.8-1.8,3.2-3.9,4.2-6.3
			c1-2.4,1.5-5,1.5-7.7s-0.5-5.3-1.6-7.7c-1.1-2.4-2.5-4.5-4.3-6.4c-1.8-1.8-3.9-3.2-6.3-4.3C333.4,41.5,330.9,41,328.2,41z"/>
		<path class="st0" d="M401.2,28.4h5.6l34.4,38.2V29h12.6v64.3h-5.6l-34.3-38.1v37.5h-12.6V28.4z"/>
		<path class="st0" d="M524,28.4l28.7,64.3h-13.9l-5.2-11.6h-24.3c-0.8,1.8-1.7,3.8-2.6,5.9c-0.9,2.1-1.8,4-2.5,5.8h-13.8l28.3-64.3
			H524z M528,68.4l-6.6-14.7l-6.6,14.7H528z"/>
		<path class="st0" d="M642.1,92.7h-15.5l-17.3-24.3h-7.6v24.3h-12.6V29h25.8c2.7,0,5.2,0.5,7.6,1.5c2.4,1,4.4,2.4,6.2,4.2
			c1.8,1.8,3.2,3.9,4.3,6.2c1.1,2.4,1.6,4.9,1.6,7.6c0,4-1,7.6-3.1,10.8c-2.1,3.2-4.8,5.5-8.1,7.1L642.1,92.7z M612.6,55.8
			c3.2,0,5.6-0.7,7.1-2.1c1.5-1.4,2.3-3.1,2.3-5.1c0-1.9-0.8-3.6-2.3-5c-1.5-1.4-3.9-2-7.1-2h-10.8v14.2H612.6z"/>
		<path class="st0" d="M726.9,29l-23.8,32.9v30.8h-12.6V61.9c-1.8-2.5-3.7-5.2-5.8-8c-2-2.8-4.1-5.6-6.1-8.5c-2-2.9-4.1-5.7-6.1-8.5
			c-2-2.8-4-5.5-5.8-8h15.6l14.6,20.2L711.3,29H726.9z"/>
		<path class="st0" d="M867,82.1c-3.6,3.6-7.4,6.4-11.6,8.3c-4.2,2-8.5,3-13.1,3c-4.9,0-9.4-0.9-13.4-2.8c-4-1.8-7.4-4.3-10.2-7.3
			c-2.8-3-5-6.5-6.5-10.4c-1.5-3.9-2.3-7.9-2.3-11.9c0-4.7,0.9-9.1,2.7-13.1c1.8-4,4.2-7.4,7.2-10.3c3-2.9,6.5-5.1,10.4-6.7
			c3.9-1.6,8-2.4,12.1-2.4c4.2,0,8.4,0.9,12.6,2.7c4.2,1.8,7.9,4.4,11.1,7.7l-8.8,8.9c-2.1-2.1-4.5-3.8-7.1-4.9
			c-2.6-1.2-5.2-1.7-7.9-1.7c-2.7,0-5.3,0.5-7.7,1.6c-2.4,1.1-4.5,2.5-6.3,4.3c-1.8,1.8-3.2,3.9-4.2,6.3c-1,2.4-1.5,5-1.5,7.7
			s0.5,5.3,1.5,7.7c1,2.4,2.4,4.5,4.2,6.3c1.8,1.8,3.9,3.2,6.3,4.2c2.4,1,5,1.5,7.7,1.5c3,0,5.8-0.7,8.4-2c2.6-1.3,5.1-3.1,7.4-5.5
			L867,82.1z"/>
		<path class="st0" d="M917.5,41.6v12.8h20.7v12.7h-20.7v12.8h28.3v12.6h-41V29h41v12.6H917.5z"/>
		<path class="st0" d="M1014,93.3c-4.1,0-8-0.8-11.9-2.3c-3.9-1.5-7.4-3.7-10.4-6.5c-3.1-2.8-5.5-6.2-7.4-10.2
			c-1.9-4-2.8-8.5-2.8-13.4c0-4.2,0.8-8.3,2.5-12.3c1.6-3.9,3.9-7.4,6.8-10.4c2.9-3,6.3-5.4,10.3-7.2c4-1.8,8.3-2.7,13-2.7
			c4.2,0,8.2,0.8,12.1,2.4c3.9,1.6,7.4,3.9,10.4,6.7c3,2.9,5.4,6.3,7.2,10.3c1.8,4,2.7,8.4,2.7,13.1c0,4.2-0.8,8.2-2.4,12.1
			c-1.6,3.9-3.9,7.4-6.7,10.4c-2.9,3-6.3,5.4-10.3,7.2C1023.1,92.4,1018.7,93.3,1014,93.3z M1014,41c-2.7,0-5.3,0.5-7.7,1.5
			c-2.4,1-4.5,2.5-6.3,4.3c-1.8,1.8-3.2,3.9-4.3,6.4c-1,2.4-1.5,5-1.5,7.7s0.5,5.3,1.6,7.7c1.1,2.4,2.5,4.5,4.3,6.3
			c1.8,1.8,3.9,3.2,6.3,4.2c2.4,1,5,1.5,7.7,1.5c2.7,0,5.3-0.5,7.7-1.5c2.4-1,4.5-2.4,6.3-4.2c1.8-1.8,3.2-3.9,4.2-6.3
			c1-2.4,1.5-5,1.5-7.7s-0.5-5.3-1.6-7.7c-1.1-2.4-2.5-4.5-4.3-6.4c-1.8-1.8-3.9-3.2-6.3-4.3C1019.2,41.5,1016.7,41,1014,41z"/>
	</g>
</g>
</svg>
