<?xml version="1.0" encoding="utf-8"?>
<!-- Generator: Adobe Illustrator 23.1.0, SVG Export Plug-In . SVG Version: 6.00 Build 0)  -->
<svg version="1.1" id="Layer_1" xmlns="http://www.w3.org/2000/svg" xmlns:xlink="http://www.w3.org/1999/xlink" x="0px" y="0px"
	 viewBox="0 0 398.9 59.2" style="enable-background:new 0 0 398.9 59.2;" xml:space="preserve">
<style type="text/css">
	.st0{fill:#FFFFFF;}
</style>
<g>
	<path class="st0" d="M133.8,24.4c-0.7-0.7-1.5-1.2-2.3-1.6c-1-0.3-2-0.6-2.9-0.6c-1,0-2,0.2-2.9,0.6s-1.7,0.9-2.3,1.6
		c-0.7,0.7-1.2,1.5-1.6,2.3c-0.3,0.9-0.6,1.9-0.6,2.9s0.2,2,0.6,2.9c0.4,0.9,0.9,1.7,1.6,2.3c0.7,0.7,1.5,1.2,2.3,1.6
		s1.8,0.6,2.9,0.6c1,0,2-0.2,2.9-0.6s1.7-0.9,2.3-1.6s1.2-1.5,1.6-2.3c0.3-0.9,0.6-1.8,0.6-2.9c0-1-0.2-2-0.6-2.9
		C134.9,25.9,134.5,25.1,133.8,24.4z"/>
	<path class="st0" d="M0,0v59.2h398.9V0H0z M25.2,41.6H23L12.4,17.8h5.1l6.5,14.4c1.1-2.3,2.1-4.8,3.2-7.3c1.1-2.5,2.1-4.8,3.2-7.1
		h5.1L25.2,41.6z M53.6,41.6h-4.7V18.1h4.7V41.6z M83.4,37.1c-0.3,0.9-1,1.7-1.7,2.2c-0.7,0.7-1.6,1.1-2.6,1.6
		c-0.8,0.6-1.9,0.7-3,0.7c-1,0-2-0.1-3-0.4s-1.9-0.7-2.7-1.2c-0.6-0.3-1.1-0.8-1.7-1.2c-0.4-0.4-0.8-0.8-1-1l3.5-3.2
		c0.1,0.2,0.4,0.4,0.8,0.8c0.3,0.2,0.8,0.6,1.2,0.8s0.9,0.4,1.5,0.7c0.4,0.1,1,0.2,1.5,0.2c0.3,0,0.8,0,1.1-0.1s0.8-0.2,1-0.4
		c0.3-0.2,0.6-0.4,0.8-0.8s0.3-0.7,0.3-1.1c0-0.1-0.1-0.3-0.2-0.6s-0.3-0.4-0.7-0.7c-0.3-0.2-0.8-0.4-1.2-0.8
		c-0.6-0.2-1.2-0.6-2-0.9c-0.9-0.3-1.8-0.8-2.7-1.1c-0.8-0.4-1.5-0.9-2.1-1.5c-0.6-0.6-1.1-1.2-1.5-1.9c-0.3-0.8-0.4-1.6-0.4-2.5
		c0-1,0.1-1.9,0.6-2.7c0.3-0.8,0.9-1.6,1.6-2.2s1.5-1.1,2.3-1.5s2-0.6,3.1-0.6c0.6,0,1.2,0.1,1.9,0.2s1.3,0.3,2,0.6s1.2,0.6,1.8,0.9
		s1.1,0.7,1.5,1l-2.8,3.5c-0.4-0.3-0.9-0.6-1.3-0.8c-0.3-0.2-0.8-0.4-1.3-0.6c-0.4-0.1-1-0.2-1.6-0.2c-0.9,0-1.7,0.2-2.2,0.6
		s-0.8,0.9-0.8,1.6c0,0.3,0.1,0.6,0.3,0.9c0.2,0.2,0.4,0.4,0.8,0.7c0.3,0.2,0.7,0.4,1.1,0.6s0.9,0.3,1.3,0.4c1.3,0.6,2.5,1,3.3,1.6
		s1.7,1.1,2.2,1.7s1,1.2,1.2,1.9s0.3,1.5,0.3,2.2C84,35.4,83.8,36.3,83.4,37.1z M102.8,41.6h-4.7V18.1h4.7V41.6z M139.7,34
		c-0.6,1.5-1.5,2.7-2.5,3.9c-1.1,1.1-2.3,2-3.8,2.7c-1.6,0.8-3.2,1-4.9,1c-1.5,0-3-0.2-4.5-0.8s-2.7-1.3-3.9-2.3s-2-2.3-2.7-3.8
		c-0.7-1.5-1-3.1-1-4.9c0-1.6,0.3-3.1,0.9-4.6s1.5-2.8,2.6-3.9c1.1-1.1,2.3-2,3.8-2.7c1.5-0.7,3-1,4.8-1c1.6,0,3,0.3,4.5,0.9
		s2.7,1.5,3.9,2.5c1.1,1.1,2,2.3,2.7,3.8s1,3.1,1,4.8C140.6,31.1,140.3,32.6,139.7,34z M173,41.6h-2.1l-12.7-14.2v13.8h-4.6V17.6h2
		l12.7,14.2v-14h4.7V41.6z M204.5,41.6l-1.9-4.4h-9c-0.3,0.7-0.6,1.5-1,2.1c-0.3,0.8-0.7,1.5-0.9,2.1h-5.1L197,17.7l2,0.1l10.6,23.8
		H204.5z M235,41.6l-6.4-9h-2.8v9h-4.7V18.1h9.5c1,0,1.9,0.2,2.8,0.6s1.7,0.9,2.3,1.6s1.2,1.5,1.6,2.3c0.4,0.9,0.6,1.8,0.6,2.8
		c0,1.5-0.3,2.8-1.1,4c-0.8,1.1-1.8,2-3,2.7l6.9,9.6H235z M263.3,30.2v11.4h-4.7V30.2c-0.7-0.9-1.5-1.9-2.1-2.9
		c-0.8-1-1.5-2-2.2-3.1s-1.5-2.1-2.2-3.1c-0.8-1-1.5-2-2.1-2.9h5.8l5.4,7.5l5.4-7.5l5.7-0.1L263.3,30.2z M304.2,32.6
		c0.3,0.9,0.9,1.7,1.6,2.3c0.7,0.7,1.5,1.2,2.3,1.6s1.8,0.6,2.9,0.6c1.1,0,2.1-0.2,3.1-0.8c1-0.4,1.9-1.1,2.8-2l2.9,3.1
		c-1.3,1.3-2.8,2.3-4.2,3.1c-1.6,0.8-3.1,1.1-4.8,1.1c-1.8,0-3.5-0.3-4.9-1c-1.5-0.7-2.8-1.6-3.8-2.7s-1.9-2.3-2.3-3.9
		c-0.6-1.5-0.8-2.9-0.8-4.5c0-1.8,0.3-3.3,1-4.8s1.6-2.8,2.7-3.8s2.3-1.9,3.9-2.5c1.5-0.6,2.9-0.9,4.5-0.9c1.6,0,3.1,0.3,4.7,1
		s2.9,1.6,4.1,2.9l-3.2,3.2c-0.8-0.8-1.7-1.5-2.7-1.8c-1-0.4-1.9-0.7-2.9-0.7c-1,0-2,0.2-2.9,0.6c-0.9,0.4-1.7,0.9-2.3,1.6
		c-0.7,0.7-1.2,1.5-1.6,2.3c-0.3,0.9-0.6,1.9-0.6,2.9S303.8,31.7,304.2,32.6z M349,22.6h-10.5v4.8h7.6v4.7h-7.6v4.8H349v4.7h-15.2
		V17.9H349V22.6z M384.4,34c-0.6,1.5-1.5,2.7-2.5,3.9c-1.1,1.1-2.3,2-3.8,2.7c-1.6,0.7-3.2,1-4.9,1c-1.5,0-3-0.2-4.5-0.8
		c-1.5-0.6-2.7-1.3-3.9-2.3c-1.1-1-2-2.3-2.7-3.8c-0.7-1.5-1-3.1-1-4.9c0-1.6,0.3-3.1,0.9-4.6s1.5-2.8,2.6-3.9
		c1.1-1.1,2.3-2,3.8-2.7s3-1,4.8-1c1.6,0,3,0.3,4.5,0.9s2.7,1.5,3.9,2.5c1.1,1.1,2,2.3,2.7,3.8s1,3.1,1,4.8
		C385.3,31.1,385,32.6,384.4,34z"/>
	<polygon class="st0" points="195.5,32.7 200.5,32.7 198,27.2 	"/>
	<path class="st0" d="M229.7,22.7h-4V28h4c1.2,0,2-0.2,2.7-0.8c0.6-0.6,0.8-1.1,0.8-1.9s-0.2-1.3-0.8-1.8S230.9,22.7,229.7,22.7z"/>
	<path class="st0" d="M378.5,24.3c-0.7-0.7-1.5-1.2-2.3-1.6c-1-0.3-2-0.6-2.9-0.6c-1,0-2,0.2-2.9,0.6s-1.7,0.9-2.3,1.6
		c-0.7,0.7-1.2,1.5-1.6,2.3c-0.3,0.9-0.6,1.9-0.6,2.9s0.2,2,0.6,2.9c0.4,0.9,0.9,1.7,1.6,2.3c0.7,0.7,1.5,1.2,2.3,1.6
		s1.8,0.6,2.9,0.6c1,0,2-0.2,2.9-0.6s1.7-0.9,2.3-1.6s1.2-1.5,1.6-2.3c0.3-0.9,0.6-1.8,0.6-2.9c0-1-0.2-2-0.6-2.9
		C379.6,25.8,379.2,25,378.5,24.3z"/>
</g>
</svg>
