<svg version="1.1" id="Layer_1" xmlns="http://www.w3.org/2000/svg" x="0" y="0" viewBox="0 0 1189.6 657.4" xml:space="preserve"><style>.st0{fill:#fff}</style><path class="st0" d="M583.9 197.8c3.1-1.1 6.3-1.9 8.7-4.5 4.6-5.2 10.4-9.1 16.1-13.9l.5-.3c-.1.3-.2.5-.3.8-.3 1.4-.6 1.9-1 2.8-8.8 20.6-13 42.1-13.1 64.5-.1 10 1.6 19.3 6.3 28.1 3.3 6.1 8.5 9.2 15.1 9.9 4.5.5 8.8-.4 13.2-1.4 6-1.4 11.1-3.9 16.9-6.3l4-1.9c1.9-1 2.4-1.4 3.8-2.2 13.7-8.7 27.5-17.2 37-31 4.2-6 3.3-12.1 1.7-18.5-.3-1.3-1.1-2.9-2.7-2.3-4.6 1.8-9.8 1.8-13.6 5.6-4.4 4.3-8.7 8.8-13.4 12.7-12.2 10.1-25 19.2-40 24.7-2.1.8-4.2 1.1-6.3.9-4-.3-4.3-3.9-4.7-6.6-.1-.6-.1-1.3-.2-1.9.2 0 .5.1.7.1 1 .1 2.6.2 3.6 0 3.9-.5 6.4-2.4 7.7-6.1 1.7-4.7 4.4-8.8 7.4-12.8 8.5-11.4 19.8-20.2 29-30.9 1.4-1.6 3-3 3.4-5.3.8-4.7-.8-8.7-4.9-10.3-3.7-1.5-8.2-1.4-11.7 1.4-11.9 9.3-24 18.3-34.2 31.1 1.4-12.2 3.9-23 7.6-33.5 1.7-4.9 3.9-9.3 8.7-12.2 3.4-2 4-6.7 1.3-9.4-.9-1.1-.6-.6-2.1-2.1-.1-.1-.3-.1-.5-.2l1.5-1c.6-.4 1.3-1 2.2-1.6 7.8-5.5 15.8-10.6 23.9-15.6 6.1-3.9 8.8-10 11.7-16.1 1.4-2.9-.4-3.4-2.2-3.3-7 .4-14.4.6-20.3 4-22 12.7-44.1 25.4-63.3 42.2-7.6 6.6-8 14-1.4 21.4.9.8 2.2 1.6 3.9 1z"/><path class="st0" d="M1129 71.3c-15.1 3-30.5 5.3-45 10.2-76.2 26.1-150.5 57.1-223.5 91.2-13.9 6.5-27.7 12.9-42 19.5-.2-2.8-.5-5.1-.5-7.4-.4-19.8-.7-39.6-1.1-59.4-.2-9.3-.5-18.6-1.2-27.9-1.1-16.1-2.2-32.1-3.9-48.1-.8-7.5 0-15.7-5.8-22-1.6-1.7-11.4-5.3-13-4-3.4 2.6-2.4 6.5-2.1 10.1 0 .2 0 .3.1.5 1.9 7.1 2.2 14.4 2.8 21.6 1.4 17 2.5 34.1 3 51.2 1 30.5 1.4 61 2.2 91.4.1 2.7.1 1.7 0 3.6l-3.2 1.6c-20.6 10-41.2 20.2-61.7 30.5-28.2 14.2-55.6 28.3-83.7 42.7-.3.2-1 .5-1.4.8s-.9.6-1.3.8l-58.2 30.9c-.2.1-.5.3-.8.4l-.9.5c-3.7-.1-7.4 0-11.1.8-4.6.9-8.9 2.7-13.1 4.7-2.1 1-4.2 2.2-6.2 3.4-4 2.3-8 4.6-12.5 5.9-4.6 1.3-6.9 0-8.1-4.6-2.4-9.1-.5-18.1 1.1-27.1 3.1-17.6 8.1-34.7 16.1-50.8.9-1.8 1.5-3.1 4.3-2.1 2.7 1 5.7-.7 7.2-3.2 2.2-3.6-.8-14.2-4.3-17-6.4-5-16.2-3.1-20.4 4.1-13.7 23.6-19.7 49.5-22.9 76.3-.9 7.6-1 15.5 1 23 1 3.7 2.6 7.3 4.6 10.5 1.8 2.8 3.8 6.3 7.1 7.1-.7.4-2.4 1.2-3.1 1.5-8.1 4.5-16.1 9-24.6 13.7V353c0-13.1 2.2-26.1 3-39.1.7-11.1 1.4-22.2 2.3-33.2 1-11.7.6-23.3-1.5-34.8-1.9-10.9-11.5-16.6-17.2-16.5-9.2.2-17.1 3.3-22.7 11.1-3.9 5.4-8.1 10.5-11.9 16-6.3 9-11.5 18.7-16.6 28.3l-1.2 2.7-.1-.1c-8.8-5.3-17.5-3.1-22.1 4.7-2.4 4-4.8 8.1-8.3 11.1-4.1 3.6-4.6 5.9-1.3 10.5.7.9 1.4 1.7 1.8 2.9 1 3 3.2 3.8 6.3 3.1 3.5-.8 8.5-1.5 10.6-3-.4 2.1-.6 2.5-1.2 4.2-2.9 8.1-5 16.4-7.3 24.7-2.8 10.2 1.4 17.8 7.3 25.2.6.8 2 1.2 3.1 1.4 4.7.9 11.4-3.7 13.3-8.2 3.4-8.4 2.9-17.6 5.6-26.1 8-24.7 19.3-47.8 33.8-69.3 2.2-3.3 4.2-6.8 8.1-9.7 0 2.1.1 3.4 0 4.7-.9 14.8-1.6 29.5-2.7 44.2-.7 8.9-2.3 17.8-2.7 26.7-.4 9.7-1.7 19.7 2.4 29 1.2 2.7.6 1.5 1.4 3.3v.1c-18.5 10.8-49.4 29-84 49.3v-2.1c-.7-25.6-.4-51.2-4.1-76.6-2.2-15-5-30-12.1-43.4-9.8-18.6-24.8-24-44-15.6-7.6 3.3-12.9 9.3-18.1 15.3-11.1 12.7-19.8 27-28 41.8-8.1-7.3-11.6-6.5-19.5 1.4-5.2 5.2-7.8 12.3-9.2 19.5-2.2 11.5-3.9 23.1-4 34.9l-.1 2.1c-.5.4-1 .7-1.8 1.3-4.4 3.5-4.6 6-1.6 11.2.7 1.2.7 1.1 2.1 2.6l.2-.1-.1 1.2c-1.5 15.2-2.2 30.4-5.2 45.4-.6 3.1-.8 6.2-1.5 9.3-1.5 6.4 3.2 10.1 5.9 14.9 1.9 3 4.1 4 7.4 2.9 6.5-2.1 9.6-6.7 10.9-13.4 4.2-22.9 9.9-45.5 16.9-67.8.6-1.9.9-3.7 1.7-5.3l.4-1.1c2.2-1.2 2.7-1.5 4.5-2.7 12.6-7.8 24.9-16.2 37.5-24 5.6-3.5 7.6-9 9.6-14.5 1.1-3-.2-5.1-3.9-5.1-4.8 0-9.5.5-14.2 2-7 2.2-12.7 6.8-19.9 10 7.8-17.1 17-32.5 27.8-46.8 4.5-5.9 8.8-12.1 15.1-16.4 3.8-2.6 7.1-2 10.4.6 2.5 2 4 4.8 4.9 7.8 5.8 18.7 8.4 37.9 9 57.4.7 21.1.2 42.3-.9 63.4 0 0-.2 1.7-.2 4.1-63.6 37.4-132.5 78-157.7 93.1-41.6 25-82.9 50.5-127.5 70.1-12.9 5.7-25.9 10.5-39.9 12.4-8.1 1.1-9.1-1.6-8.9-7.3.4-13.4 3.6-26.2 6.7-39.1 12.9-52.8 29.1-104.8 42.9-157.3 10.9-41.4 20.5-83 29.4-124.8 4.6-21.6 8.8-43.2 12.7-64.9 2.5-14 5-27.9 6.4-42.1 1-10 2.9-20 3.7-30 .7-9.6 2.5-19.1 1.3-28.8-.9-7.7-8.9-15.2-16.5-14.8-1.2.1-2 .9-2.6 2-3.7 6.6-3.4 13.7-1.3 20.4.9 3 1.6 5.7 1.3 8.6-2.2 15.8-3.9 31.7-6.8 47.5-4.1 22.7-7.7 45.6-12.3 68.3-5 25-10.9 49.7-16.7 74.5-9.4 40.5-20.1 80.7-31.7 120.6-12.1 41.7-26.5 82.8-36.9 125-3.2 13.1-6.1 26.4-2.4 39.6 3.6 13 10.2 23.8 25.5 25.6 6.9.8 13.5-.7 20.1-2.2 20.8-4.8 40.2-13.7 59.3-23 44.7-21.8 86.8-48.2 129.3-73.8 62.1-37.4 124-75 186.9-110.9 43.1-24.6 86.1-49.5 129.7-73.2 64.5-35 129.8-68.5 195.4-101.4 10.6-5.3 21.4-10.3 32.5-15.6.1 1.6.2 2.6.2 3.6-.1 39.6.2 79.3-1.8 118.9-1 19.3-1.7 38.6 0 57.9 1 11.2 1.4 22.9 10.3 32 2.4 2.4 3.9 5.4 7.4 3.7 3.9-1.8 8.5-3.8 8-9.6-.2-3-.2-6-.6-9-2-15.8-3.1-31.8-3.2-47.7-.4-51.8-.1-103.6-.2-155.5l-.1-4.2 3.7-1.8c56.5-26.9 113.7-51.8 171.6-75.4 34.1-13.9 68.9-26.2 103.5-38.9 21.9-8.1 42.6-19.5 63.4-30.2 4.1-2.1 8.5-3.9 12.4-7.4-15.5-.3-30 3.1-44.5 6z"/><path class="st0" d="M730 410c-1.3-8.8-2.6-17.6-5.9-25.9-2.4-5.9-9.1-10.3-14-10-9 .5-14.8 5.1-18.8 13-4.8 9.6-9.3 19.4-15 28.6-6.5 10.3-12.7 20.8-21.1 31.1 0-2.8-.1-4.4 0-6 .3-5.5.9-10.9.9-16.4 0-5.9-7.2-12.9-12.1-12-6.3 1.2-12.5 2.7-13.9 10.6-.4 2.1-1.9 3.9-2.3 6-.4 1-1 2.6-1.6 4.6-1.4-.1-4 .3-4.1.3-4.7.1-7 2.8-7.8 6.9-1.1 5.5-2.3 11-2.9 16.6-1 9.3-1.6 18.6-2.5 28.8-6.2-5.8-13.2-6.2-20.4-4.9-5.7 1-11.3 2.2-16.8 3.8-33.6 9.3-65.7 22.6-97.9 35.5-8.7 3.5-17.4 7.1-26 10.6 12.2-15.3 25-29.8 37.7-44.4 24.4-28.1 50.5-54.5 77.6-79.8 4.3-4 5.5-9.7 2.7-13.2-3.5-4.4-11.3-5-16-1.4-9.2 7.2-17.7 15.2-26.1 23.3-32.4 31.3-62.2 64.9-92.6 98-9.5 10.3-19.3 20.2-29.1 30.2-3.5 3.6-5.5 7.8-3.6 12.6 1.5 3.7 3.7 7.2 5.9 10.6 1 1.5 2.9 2 4.9 2.1h.2c3.8 0 7.3-1.3 10.7-2.7 34.7-14.2 69.4-28.7 104.1-42.8 19.1-7.8 38.4-14.9 59.3-20.8-2.1 2.7-3.4 4.7-5 6.6-23.3 28.1-48.4 54.4-77.1 77.3-19.1 15.1-38.4 29.7-60.4 40.2-2.3 1.1-2.1 2.4-2 4.3.3 4.4 4 6.6 5.9 10 1.6 2.8 3.7 3.7 6.9 3.1 8.8-1.7 16.9-5.2 24.7-9.4 27.5-14.8 50.8-35.4 73.7-56.1 20.2-18.2 38.5-38.3 54.6-60.7-.5 6.1 3.8 10.1 6.2 14.8 0 .1.1.1.1.2.3.4 1 1.4 1.7 2.1.3.3.7.5 1 .6.2.1.3.1.5.1.3.1.7.1 1.1 0 .6-.1 1.2-.3 1.9-.5.1 0 .2-.1.2-.1 5.2-1.8 9.4-4.2 10.4-10.4.5-3.6 2-7 2.8-10.5 3-14.1 6.5-28.1 10.3-42.1 6.8 5.6 8.3 5.7 16.6 3.2 10.1-3 16.9-10.1 22.9-18.2 9.9-13.2 18.5-27.3 27.1-42.7 1.4 13.2 2.3 25.4 4.1 37.4 1.7 11.6 1.1 23.7 8.5 34.1 2 2.8 3.3 5.4 7 4.9 5.3-.7 10.1-4.3 10.3-7.9.2-3.8.5-7.7-.1-11.5-3-20.6-4.3-41.2-7.4-61.7zm-119.3 96c.4-3 .8-6.1 1.3-9.4.1 2.7-.2 5.8-1.3 9.4zm401.8-182.2c-22.1 4.8-44.2 10.7-67.1 9.3-9.7-.6-18.7-2.8-24.5-11.7-2.7-4.1-5.3-8.3-6.9-13-2.5-7.1-4.9-14.2-7.8-21.1-3.1-7.4-7.8-9.7-15.6-8.3-.8 0-1.5.2-2.3.6 0-.7.1-1.3.1-2 1.4-11.4-.3-22.9 2.4-34.2 1.1-4.5 1.7-9.1 2-13.7.4-4.6-2.6-7.7-6.5-8.9-5.1-1.5-9 1-10.6 6.2-.8 2.7-1.7 5.5-1.7 8.2.2 16.1-.4 32.2-2.1 48.3-1.1 9.9-2.2 19.7-3.6 29.5-2 14.8-6.7 29-9.2 43.7-.8 4.8 3.3 12.8 8.3 15.8 1.5.9 2.8 1 4 .7h.2c.2-.1.5-.2.8-.3.1 0 .2-.1.2-.1 1.4-.7 2.6-1.7 3.9-2.4 2.7-1.6 3.8-4.4 4.5-7.4 2-8.5 3.8-17.1 6-25.6 2.5-9.9 5.3-19.7 8.2-30.6 2.4 7.9 5.5 14.2 8.6 20.4 9 17.8 23.3 26.8 43.3 27.2 10.8.2 21.5-.1 32.1-2.1 14.1-2.6 27.6-6.8 40.5-13.1 2.2-1.1 4.6-2.3 4.9-5.1.7-7.1-5.2-11.8-12.1-10.3zm-252.4 34.8c-4.1-11.3-7.9-13.3-19.2-10.1-2.5.7-3.4 1.9-2.8 4.3.5 1.9 1 3.8 1.8 5.6 4 9.8 5.7 20.1 7 30.4 1.7 13.9 2.4 28 4.2 41.9 1 7.4 1.8 15 4.9 22 1.2 2.8 2.3 6.9 5.6 6.8 4.2-.1 6-4.2 7.1-8 .1-.5.1-1 .2-1.5 1.6-6 .6-12.3 1.6-17.7-1-12-.9-23.5-2.5-34.9-1.8-13-3.3-26.1-7.9-38.8zm-27.4-21.8c5.7.2 11.2-4 12.2-9.7.3-1.5.8-2.7 1.4-4.1 1.7-4 2.9-8.7 0-12.2s-6.4-7.5-12.2-5.1c-.9.4-2 .2-1.8.2-6.4-.2-8.8 2.2-9.3 7.5-.8 7.7 2.9 14.1 5.7 20.8.5 1.4 2 2.5 4 2.6z"/></svg>