<svg xmlns="http://www.w3.org/2000/svg" xmlns:xlink="http://www.w3.org/1999/xlink" width="150" height="600"><defs><path d="M75 98.66L0 131.54l.01-65.77V0l75 32.89 75 32.89L75 98.66z" id="a"/><path d="M75 164.43L0 197.31l.01-65.77V65.77l75 32.89 75 32.89L75 164.43z" id="b"/><path d="M75 230.2L0 263.08l.01-65.77v-65.77l75 32.89 75 32.89L75 230.2z" id="c"/><path d="M75 295.97L0 328.85l.01-65.77v-65.77l75 32.89 75 32.89L75 295.97z" id="d"/><path d="M75 361.74L0 394.62l.01-65.77v-65.77l75 32.89 75 32.89L75 361.74z" id="e"/><path d="M75 427.51L0 460.39l.01-65.77v-65.77l75 32.89 75 32.89L75 427.51z" id="f"/><path d="M75 493.28L0 526.16l.01-65.77v-65.77l75 32.89 75 32.89L75 493.28z" id="g"/><path d="M75 559.05L0 591.93l.01-65.77v-65.77l75 32.88 75 32.9L75 559.05z" id="h"/></defs><use xlink:href="#a" fill="#fff"/><use xlink:href="#b" fill="#fff"/><use xlink:href="#c" fill="#fff"/><use xlink:href="#d" fill="#fff"/><use xlink:href="#e" fill="#fff"/><use xlink:href="#f" fill="#fff"/><use xlink:href="#g" fill="#fff"/><use xlink:href="#h" fill="#fff"/></svg>