<svg version="1.1" id="Layer_1" xmlns="http://www.w3.org/2000/svg" x="0" y="0" viewBox="0 0 398.9 59.2" xml:space="preserve"><style>.st0{fill:#fff}</style><path class="st0" d="M133.8 24.4c-.7-.7-1.5-1.2-2.3-1.6-1-.3-2-.6-2.9-.6-1 0-2 .2-2.9.6s-1.7.9-2.3 1.6c-.7.7-1.2 1.5-1.6 2.3-.3.9-.6 1.9-.6 2.9s.2 2 .6 2.9c.4.9.9 1.7 1.6 2.3.7.7 1.5 1.2 2.3 1.6s1.8.6 2.9.6c1 0 2-.2 2.9-.6s1.7-.9 2.3-1.6 1.2-1.5 1.6-2.3c.3-.9.6-1.8.6-2.9 0-1-.2-2-.6-2.9-.5-.8-.9-1.6-1.6-2.3z"/><path class="st0" d="M0 0v59.2h398.9V0H0zm25.2 41.6H23L12.4 17.8h5.1L24 32.2c1.1-2.3 2.1-4.8 3.2-7.3s2.1-4.8 3.2-7.1h5.1L25.2 41.6zm28.4 0h-4.7V18.1h4.7v23.5zm29.8-4.5c-.3.9-1 1.7-1.7 2.2-.7.7-1.6 1.1-2.6 1.6-.8.6-1.9.7-3 .7-1 0-2-.1-3-.4s-1.9-.7-2.7-1.2c-.6-.3-1.1-.8-1.7-1.2l-1-1 3.5-3.2c.1.2.4.4.8.8.3.2.8.6 1.2.8s.9.4 1.5.7c.4.1 1 .2 1.5.2.3 0 .8 0 1.1-.1s.8-.2 1-.4c.3-.2.6-.4.8-.8s.3-.7.3-1.1c0-.1-.1-.3-.2-.6s-.3-.4-.7-.7c-.3-.2-.8-.4-1.2-.8-.6-.2-1.2-.6-2-.9-.9-.3-1.8-.8-2.7-1.1-.8-.4-1.5-.9-2.1-1.5-.6-.6-1.1-1.2-1.5-1.9-.3-.8-.4-1.6-.4-2.5 0-1 .1-1.9.6-2.7.3-.8.9-1.6 1.6-2.2s1.5-1.1 2.3-1.5 2-.6 3.1-.6c.6 0 1.2.1 1.9.2s1.3.3 2 .6 1.2.6 1.8.9 1.1.7 1.5 1l-2.8 3.5c-.4-.3-.9-.6-1.3-.8-.3-.2-.8-.4-1.3-.6-.4-.1-1-.2-1.6-.2-.9 0-1.7.2-2.2.6s-.8.9-.8 1.6c0 .3.1.6.3.9.2.2.4.4.8.7.3.2.7.4 1.1.6s.9.3 1.3.4c1.3.6 2.5 1 3.3 1.6s1.7 1.1 2.2 1.7 1 1.2 1.2 1.9.3 1.5.3 2.2c.1.9-.1 1.8-.5 2.6zm19.4 4.5h-4.7V18.1h4.7v23.5zm36.9-7.6c-.6 1.5-1.5 2.7-2.5 3.9-1.1 1.1-2.3 2-3.8 2.7-1.6.8-3.2 1-4.9 1-1.5 0-3-.2-4.5-.8s-2.7-1.3-3.9-2.3-2-2.3-2.7-3.8c-.7-1.5-1-3.1-1-4.9 0-1.6.3-3.1.9-4.6s1.5-2.8 2.6-3.9 2.3-2 3.8-2.7c1.5-.7 3-1 4.8-1 1.6 0 3 .3 4.5.9s2.7 1.5 3.9 2.5c1.1 1.1 2 2.3 2.7 3.8s1 3.1 1 4.8c0 1.5-.3 3-.9 4.4zm33.3 7.6h-2.1l-12.7-14.2v13.8h-4.6V17.6h2l12.7 14.2v-14h4.7v23.8zm31.5 0l-1.9-4.4h-9c-.3.7-.6 1.5-1 2.1-.3.8-.7 1.5-.9 2.1h-5.1L197 17.7l2 .1 10.6 23.8h-5.1zm30.5 0l-6.4-9h-2.8v9h-4.7V18.1h9.5c1 0 1.9.2 2.8.6s1.7.9 2.3 1.6 1.2 1.5 1.6 2.3c.4.9.6 1.8.6 2.8 0 1.5-.3 2.8-1.1 4-.8 1.1-1.8 2-3 2.7l6.9 9.6H235zm28.3-11.4v11.4h-4.7V30.2c-.7-.9-1.5-1.9-2.1-2.9-.8-1-1.5-2-2.2-3.1s-1.5-2.1-2.2-3.1c-.8-1-1.5-2-2.1-2.9h5.8l5.4 7.5 5.4-7.5 5.7-.1-9 12.1zm40.9 2.4c.3.9.9 1.7 1.6 2.3.7.7 1.5 1.2 2.3 1.6s1.8.6 2.9.6c1.1 0 2.1-.2 3.1-.8 1-.4 1.9-1.1 2.8-2l2.9 3.1c-1.3 1.3-2.8 2.3-4.2 3.1-1.6.8-3.1 1.1-4.8 1.1-1.8 0-3.5-.3-4.9-1-1.5-.7-2.8-1.6-3.8-2.7s-1.9-2.3-2.3-3.9c-.6-1.5-.8-2.9-.8-4.5 0-1.8.3-3.3 1-4.8s1.6-2.8 2.7-3.8 2.3-1.9 3.9-2.5c1.5-.6 2.9-.9 4.5-.9s3.1.3 4.7 1 2.9 1.6 4.1 2.9l-3.2 3.2c-.8-.8-1.7-1.5-2.7-1.8-1-.4-1.9-.7-2.9-.7s-2 .2-2.9.6c-.9.4-1.7.9-2.3 1.6-.7.7-1.2 1.5-1.6 2.3-.3.9-.6 1.9-.6 2.9s.1 2.2.5 3.1zm44.8-10h-10.5v4.8h7.6v4.7h-7.6v4.8H349v4.7h-15.2V17.9H349v4.7zM384.4 34c-.6 1.5-1.5 2.7-2.5 3.9-1.1 1.1-2.3 2-3.8 2.7-1.6.7-3.2 1-4.9 1-1.5 0-3-.2-4.5-.8-1.5-.6-2.7-1.3-3.9-2.3-1.1-1-2-2.3-2.7-3.8-.7-1.5-1-3.1-1-4.9 0-1.6.3-3.1.9-4.6s1.5-2.8 2.6-3.9 2.3-2 3.8-2.7 3-1 4.8-1c1.6 0 3 .3 4.5.9s2.7 1.5 3.9 2.5c1.1 1.1 2 2.3 2.7 3.8s1 3.1 1 4.8c0 1.5-.3 3-.9 4.4z"/><path class="st0" d="M195.5 32.7h5l-2.5-5.5zm34.2-10h-4V28h4c1.2 0 2-.2 2.7-.8.6-.6.8-1.1.8-1.9s-.2-1.3-.8-1.8-1.5-.8-2.7-.8zm148.8 1.6c-.7-.7-1.5-1.2-2.3-1.6-1-.3-2-.6-2.9-.6-1 0-2 .2-2.9.6s-1.7.9-2.3 1.6c-.7.7-1.2 1.5-1.6 2.3-.3.9-.6 1.9-.6 2.9s.2 2 .6 2.9c.4.9.9 1.7 1.6 2.3.7.7 1.5 1.2 2.3 1.6s1.8.6 2.9.6c1 0 2-.2 2.9-.6s1.7-.9 2.3-1.6 1.2-1.5 1.6-2.3c.3-.9.6-1.8.6-2.9 0-1-.2-2-.6-2.9-.5-.8-.9-1.6-1.6-2.3z"/></svg>