<svg xmlns="http://www.w3.org/2000/svg" viewBox="0 0 1057 117"><path d="M38.1 93.3L9.4 29h13.8l17.4 38.9c2.9-6.5 5.7-13 8.6-19.5 2.9-6.5 5.8-13 8.7-19.4h13.8L43.3 93.3h-5.2zm69.9-.6V29h12.6v63.7H108zm73.5.6c-2.8 0-5.5-.4-8.1-1.2-2.6-.8-5.1-1.9-7.4-3.4h.1c-1.6-1-3.1-2.2-4.4-3.4-1.3-1.2-2.2-2.1-2.6-2.6l9.5-8.7c.4.5 1.1 1.2 2 2s2 1.5 3.2 2.2 2.5 1.3 3.8 1.8 2.6.7 3.8.7c1 0 2.1-.1 3.1-.4 1-.2 2-.6 2.8-1.1s1.5-1.2 2.1-2c.5-.8.8-1.9.8-3.2 0-.5-.2-1-.5-1.6s-.9-1.2-1.7-1.9-2-1.4-3.4-2.1c-1.5-.8-3.3-1.6-5.5-2.4-2.5-1-4.9-2-7.1-3.1-2.2-1.1-4.1-2.4-5.7-4-1.6-1.5-2.9-3.2-3.7-5.2-.9-1.9-1.3-4.2-1.3-6.7 0-2.6.5-5.1 1.5-7.3 1-2.3 2.4-4.2 4.1-5.9 1.8-1.7 3.9-3 6.5-3.9 2.5-.9 5.3-1.4 8.3-1.4 1.6 0 3.4.2 5.2.6s3.7 1 5.4 1.6c1.8.7 3.4 1.4 5 2.3 1.5.9 2.8 1.8 3.9 2.7l-7.8 9.8c-1.2-.8-2.3-1.5-3.5-2.2-1-.5-2.2-1.1-3.5-1.5-1.3-.5-2.7-.7-4.1-.7-2.5 0-4.5.5-6 1.5-1.4 1-2.1 2.4-2.1 4.3 0 .9.3 1.6.8 2.3s1.2 1.3 2.1 1.9c.9.6 1.9 1.1 3 1.6 1.2.5 2.4.9 3.6 1.4 3.6 1.4 6.7 2.8 9.2 4.2s4.5 2.9 6 4.5 2.6 3.3 3.2 5.2c.6 1.9 1 3.9 1 6.1 0 2.7-.5 5.2-1.6 7.6s-2.6 4.4-4.5 6.1-4.2 3.1-6.8 4.1c-2.7.9-5.6 1.4-8.7 1.4zm61.7-.6V29h12.6v63.7h-12.6zm85 .6c-4.1 0-8-.8-11.9-2.3s-7.4-3.7-10.4-6.5c-3.1-2.8-5.5-6.2-7.4-10.2s-2.8-8.5-2.8-13.4c0-4.2.8-8.3 2.5-12.3 1.6-3.9 3.9-7.4 6.8-10.4s6.3-5.4 10.3-7.2 8.3-2.7 13-2.7c4.2 0 8.2.8 12.1 2.4s7.4 3.9 10.4 6.7c3 2.9 5.4 6.3 7.2 10.3 1.8 4 2.7 8.4 2.7 13.1 0 4.2-.8 8.2-2.4 12.1s-3.9 7.4-6.7 10.4c-2.9 3-6.3 5.4-10.3 7.2-4 1.9-8.3 2.8-13.1 2.8zm0-52.3c-2.7 0-5.3.5-7.7 1.5-2.4 1-4.5 2.5-6.3 4.3s-3.2 3.9-4.3 6.4c-1 2.4-1.5 5-1.5 7.7s.5 5.3 1.6 7.7c1.1 2.4 2.5 4.5 4.3 6.3s3.9 3.2 6.3 4.2 5 1.5 7.7 1.5 5.3-.5 7.7-1.5c2.4-1 4.5-2.4 6.3-4.2 1.8-1.8 3.2-3.9 4.2-6.3s1.5-5 1.5-7.7-.5-5.3-1.6-7.7-2.5-4.5-4.3-6.4c-1.8-1.8-3.9-3.2-6.3-4.3-2.4-1-4.9-1.5-7.6-1.5zm73-12.6h5.6l34.4 38.2V29h12.6v64.3h-5.6l-34.3-38.1v37.5h-12.6V28.4h-.1zm122.8 0l28.7 64.3h-13.9l-5.2-11.6h-24.3c-.8 1.8-1.7 3.8-2.6 5.9s-1.8 4-2.5 5.8h-13.8l28.3-64.3h5.3v-.1zm4 40l-6.6-14.7-6.6 14.7H528zm114.1 24.3h-15.5l-17.3-24.3h-7.6v24.3h-12.6V29h25.8c2.7 0 5.2.5 7.6 1.5 2.4 1 4.4 2.4 6.2 4.2s3.2 3.9 4.3 6.2c1.1 2.4 1.6 4.9 1.6 7.6 0 4-1 7.6-3.1 10.8s-4.8 5.5-8.1 7.1l18.7 26.3zm-29.5-36.9c3.2 0 5.6-.7 7.1-2.1 1.5-1.4 2.3-3.1 2.3-5.1 0-1.9-.8-3.6-2.3-5s-3.9-2-7.1-2h-10.8v14.2h10.8zM726.9 29l-23.8 32.9v30.8h-12.6V61.9c-1.8-2.5-3.7-5.2-5.8-8-2-2.8-4.1-5.6-6.1-8.5s-4.1-5.7-6.1-8.5-4-5.5-5.8-8h15.6l14.6 20.2L711.3 29h15.6zM867 82.1c-3.6 3.6-7.4 6.4-11.6 8.3-4.2 2-8.5 3-13.1 3-4.9 0-9.4-.9-13.4-2.8-4-1.8-7.4-4.3-10.2-7.3s-5-6.5-6.5-10.4-2.3-7.9-2.3-11.9c0-4.7.9-9.1 2.7-13.1s4.2-7.4 7.2-10.3c3-2.9 6.5-5.1 10.4-6.7 3.9-1.6 8-2.4 12.1-2.4 4.2 0 8.4.9 12.6 2.7 4.2 1.8 7.9 4.4 11.1 7.7l-8.8 8.9c-2.1-2.1-4.5-3.8-7.1-4.9-2.6-1.2-5.2-1.7-7.9-1.7s-5.3.5-7.7 1.6-4.5 2.5-6.3 4.3-3.2 3.9-4.2 6.3-1.5 5-1.5 7.7.5 5.3 1.5 7.7c1 2.4 2.4 4.5 4.2 6.3s3.9 3.2 6.3 4.2 5 1.5 7.7 1.5c3 0 5.8-.7 8.4-2 2.6-1.3 5.1-3.1 7.4-5.5l9 8.8zm50.5-40.5v12.8h20.7v12.7h-20.7v12.8h28.3v12.6h-41V29h41v12.6h-28.3zm96.5 51.7c-4.1 0-8-.8-11.9-2.3s-7.4-3.7-10.4-6.5c-3.1-2.8-5.5-6.2-7.4-10.2s-2.8-8.5-2.8-13.4c0-4.2.8-8.3 2.5-12.3 1.6-3.9 3.9-7.4 6.8-10.4s6.3-5.4 10.3-7.2 8.3-2.7 13-2.7c4.2 0 8.2.8 12.1 2.4s7.4 3.9 10.4 6.7c3 2.9 5.4 6.3 7.2 10.3 1.8 4 2.7 8.4 2.7 13.1 0 4.2-.8 8.2-2.4 12.1s-3.9 7.4-6.7 10.4c-2.9 3-6.3 5.4-10.3 7.2-4 1.9-8.4 2.8-13.1 2.8zm0-52.3c-2.7 0-5.3.5-7.7 1.5s-4.5 2.5-6.3 4.3-3.2 3.9-4.3 6.4c-1 2.4-1.5 5-1.5 7.7s.5 5.3 1.6 7.7c1.1 2.4 2.5 4.5 4.3 6.3s3.9 3.2 6.3 4.2 5 1.5 7.7 1.5 5.3-.5 7.7-1.5c2.4-1 4.5-2.4 6.3-4.2 1.8-1.8 3.2-3.9 4.2-6.3s1.5-5 1.5-7.7-.5-5.3-1.6-7.7-2.5-4.5-4.3-6.4c-1.8-1.8-3.9-3.2-6.3-4.3-2.4-1-4.9-1.5-7.6-1.5z"/></svg>